<mxfile host="app.diagrams.net" modified="2023-05-16T13:33:45.281Z" agent="Mozilla/5.0 (Windows NT 10.0; Win64; x64) AppleWebKit/537.36 (KHTML, like Gecko) Chrome/113.0.0.0 Safari/537.36 Edg/113.0.1774.35" etag="t6NhPNLnLSl6TCd1lyRB" version="21.3.2" type="github" pages="2">
  <diagram name="第 1 页" id="JaTiI77g6eKHVEttl6wa">
    <mxGraphModel dx="1253" dy="836" grid="1" gridSize="10" guides="1" tooltips="1" connect="1" arrows="1" fold="1" page="1" pageScale="1" pageWidth="827" pageHeight="1169" math="0" shadow="0">
      <root>
        <mxCell id="0" />
        <mxCell id="1" parent="0" />
        <mxCell id="KhAThkJv5Irgp1XRV-3g-1" value="&lt;p style=&quot;line-height: 0%;&quot;&gt;&lt;br&gt;&lt;/p&gt;" style="whiteSpace=wrap;html=1;aspect=fixed;align=center;strokeColor=#000000;rounded=1;fillColor=#f3e7f8;" vertex="1" parent="1">
          <mxGeometry x="-160" y="150" width="440" height="440" as="geometry" />
        </mxCell>
        <mxCell id="KhAThkJv5Irgp1XRV-3g-6" style="rounded=0;orthogonalLoop=1;jettySize=auto;html=1;entryX=0.1;entryY=0.786;entryDx=0;entryDy=0;entryPerimeter=0;" edge="1" parent="1" target="KhAThkJv5Irgp1XRV-3g-4">
          <mxGeometry relative="1" as="geometry">
            <mxPoint x="-240" y="320" as="sourcePoint" />
          </mxGeometry>
        </mxCell>
        <mxCell id="KhAThkJv5Irgp1XRV-3g-7" style="rounded=0;orthogonalLoop=1;jettySize=auto;html=1;entryX=0;entryY=0.5;entryDx=0;entryDy=0;" edge="1" parent="1" target="KhAThkJv5Irgp1XRV-3g-5">
          <mxGeometry relative="1" as="geometry">
            <mxPoint x="-240" y="320" as="sourcePoint" />
          </mxGeometry>
        </mxCell>
        <mxCell id="KhAThkJv5Irgp1XRV-3g-3" value="Actor" style="shape=umlActor;verticalLabelPosition=bottom;verticalAlign=top;html=1;outlineConnect=0;fillColor=#1ba1e2;fontColor=#ffffff;strokeColor=#000000;" vertex="1" parent="1">
          <mxGeometry x="-310" y="290" width="50" height="110" as="geometry" />
        </mxCell>
        <mxCell id="KhAThkJv5Irgp1XRV-3g-11" style="rounded=0;orthogonalLoop=1;jettySize=auto;html=1;entryX=0;entryY=0.5;entryDx=0;entryDy=0;dashed=1;" edge="1" parent="1" source="KhAThkJv5Irgp1XRV-3g-4" target="KhAThkJv5Irgp1XRV-3g-9">
          <mxGeometry relative="1" as="geometry" />
        </mxCell>
        <mxCell id="KhAThkJv5Irgp1XRV-3g-4" value="&lt;font face=&quot;Verdana&quot;&gt;文言文翻译现代文&lt;/font&gt;" style="ellipse;whiteSpace=wrap;html=1;fillColor=#1ba1e2;fontColor=#ffffff;strokeColor=#000000;labelBackgroundColor=none;labelBorderColor=none;" vertex="1" parent="1">
          <mxGeometry x="-130" y="200" width="130" height="70" as="geometry" />
        </mxCell>
        <mxCell id="KhAThkJv5Irgp1XRV-3g-12" style="rounded=0;orthogonalLoop=1;jettySize=auto;html=1;entryX=0.023;entryY=0.629;entryDx=0;entryDy=0;entryPerimeter=0;dashed=1;" edge="1" parent="1" source="KhAThkJv5Irgp1XRV-3g-5" target="KhAThkJv5Irgp1XRV-3g-10">
          <mxGeometry relative="1" as="geometry" />
        </mxCell>
        <mxCell id="KhAThkJv5Irgp1XRV-3g-5" value="&lt;font face=&quot;Verdana&quot;&gt;现代文翻译文言文&lt;/font&gt;" style="ellipse;whiteSpace=wrap;html=1;fillColor=#1ba1e2;fontColor=#ffffff;strokeColor=#000000;labelBackgroundColor=none;labelBorderColor=none;" vertex="1" parent="1">
          <mxGeometry x="-130" y="440" width="130" height="70" as="geometry" />
        </mxCell>
        <mxCell id="KhAThkJv5Irgp1XRV-3g-8" value="&lt;font face=&quot;Verdana&quot;&gt;文言文-现代文翻译系统&lt;/font&gt;" style="rounded=0;whiteSpace=wrap;html=1;strokeColor=none;opacity=0;" vertex="1" parent="1">
          <mxGeometry x="-35" y="150" width="190" height="60" as="geometry" />
        </mxCell>
        <mxCell id="KhAThkJv5Irgp1XRV-3g-9" value="&lt;font face=&quot;Verdana&quot;&gt;现代文译文&lt;/font&gt;" style="ellipse;whiteSpace=wrap;html=1;fillColor=#1ba1e2;fontColor=#ffffff;strokeColor=#000000;labelBackgroundColor=none;labelBorderColor=none;" vertex="1" parent="1">
          <mxGeometry x="120" y="240" width="130" height="70" as="geometry" />
        </mxCell>
        <mxCell id="KhAThkJv5Irgp1XRV-3g-10" value="&lt;font face=&quot;Verdana&quot;&gt;文言文译文&lt;/font&gt;" style="ellipse;whiteSpace=wrap;html=1;fillColor=#1ba1e2;fontColor=#ffffff;strokeColor=#000000;labelBackgroundColor=none;labelBorderColor=none;" vertex="1" parent="1">
          <mxGeometry x="130" y="400" width="130" height="70" as="geometry" />
        </mxCell>
        <mxCell id="KhAThkJv5Irgp1XRV-3g-13" value="&lt;font style=&quot;font-size: 14px;&quot; face=&quot;Verdana&quot;&gt;&amp;lt;&amp;lt;include&amp;gt;&amp;gt;&lt;/font&gt;" style="rounded=0;whiteSpace=wrap;html=1;strokeColor=none;opacity=0;rotation=0;" vertex="1" parent="1">
          <mxGeometry x="-30" y="210" width="190" height="60" as="geometry" />
        </mxCell>
        <mxCell id="KhAThkJv5Irgp1XRV-3g-14" value="&lt;font style=&quot;font-size: 14px;&quot; face=&quot;Verdana&quot;&gt;&amp;lt;&amp;lt;include&amp;gt;&amp;gt;&lt;/font&gt;" style="rounded=0;whiteSpace=wrap;html=1;strokeColor=none;opacity=0;rotation=0;" vertex="1" parent="1">
          <mxGeometry x="-30" y="400" width="190" height="60" as="geometry" />
        </mxCell>
        <mxCell id="dI-QGvxnpe4SQHdEIde6-1" value="&lt;font style=&quot;font-size: 14px;&quot; face=&quot;Verdana&quot;&gt;用户&lt;/font&gt;" style="rounded=0;whiteSpace=wrap;html=1;strokeColor=none;opacity=0;" vertex="1" parent="1">
          <mxGeometry x="-380" y="390" width="190" height="60" as="geometry" />
        </mxCell>
      </root>
    </mxGraphModel>
  </diagram>
  <diagram id="ez33ICEjyrJMeEuoVsqn" name="第 2 页">
    <mxGraphModel dx="426" dy="836" grid="1" gridSize="10" guides="1" tooltips="1" connect="1" arrows="1" fold="1" page="1" pageScale="1" pageWidth="827" pageHeight="1169" math="0" shadow="0">
      <root>
        <mxCell id="0" />
        <mxCell id="1" parent="0" />
        <mxCell id="Ssd7fIlNlYfRAPl8rsqp-1" value="&lt;p style=&quot;line-height: 0%;&quot;&gt;&lt;br&gt;&lt;/p&gt;" style="whiteSpace=wrap;html=1;aspect=fixed;align=center;strokeColor=#000000;rounded=1;fillColor=#f3e7f8;" vertex="1" parent="1">
          <mxGeometry x="220" y="180" width="440" height="440" as="geometry" />
        </mxCell>
        <mxCell id="Ssd7fIlNlYfRAPl8rsqp-2" style="rounded=0;orthogonalLoop=1;jettySize=auto;html=1;entryX=0.1;entryY=0.786;entryDx=0;entryDy=0;entryPerimeter=0;" edge="1" parent="1" target="Ssd7fIlNlYfRAPl8rsqp-6">
          <mxGeometry relative="1" as="geometry">
            <mxPoint x="140" y="350" as="sourcePoint" />
          </mxGeometry>
        </mxCell>
        <mxCell id="Ssd7fIlNlYfRAPl8rsqp-3" style="rounded=0;orthogonalLoop=1;jettySize=auto;html=1;entryX=0;entryY=0.5;entryDx=0;entryDy=0;" edge="1" parent="1" target="Ssd7fIlNlYfRAPl8rsqp-8">
          <mxGeometry relative="1" as="geometry">
            <mxPoint x="140" y="350" as="sourcePoint" />
          </mxGeometry>
        </mxCell>
        <mxCell id="Ssd7fIlNlYfRAPl8rsqp-4" value="Actor" style="shape=umlActor;verticalLabelPosition=bottom;verticalAlign=top;html=1;outlineConnect=0;fillColor=#1ba1e2;fontColor=#ffffff;strokeColor=#000000;" vertex="1" parent="1">
          <mxGeometry x="70" y="320" width="50" height="110" as="geometry" />
        </mxCell>
        <mxCell id="Ssd7fIlNlYfRAPl8rsqp-5" style="rounded=0;orthogonalLoop=1;jettySize=auto;html=1;entryX=0;entryY=0.5;entryDx=0;entryDy=0;dashed=1;" edge="1" parent="1" source="Ssd7fIlNlYfRAPl8rsqp-6" target="Ssd7fIlNlYfRAPl8rsqp-10">
          <mxGeometry relative="1" as="geometry" />
        </mxCell>
        <mxCell id="Ssd7fIlNlYfRAPl8rsqp-6" value="&lt;font face=&quot;Verdana&quot;&gt;文言文翻译现代文&lt;/font&gt;" style="ellipse;whiteSpace=wrap;html=1;fillColor=#1ba1e2;fontColor=#ffffff;strokeColor=#000000;labelBackgroundColor=none;labelBorderColor=none;" vertex="1" parent="1">
          <mxGeometry x="250" y="230" width="130" height="70" as="geometry" />
        </mxCell>
        <mxCell id="Ssd7fIlNlYfRAPl8rsqp-7" style="rounded=0;orthogonalLoop=1;jettySize=auto;html=1;entryX=0.023;entryY=0.629;entryDx=0;entryDy=0;entryPerimeter=0;dashed=1;" edge="1" parent="1" source="Ssd7fIlNlYfRAPl8rsqp-8" target="Ssd7fIlNlYfRAPl8rsqp-11">
          <mxGeometry relative="1" as="geometry" />
        </mxCell>
        <mxCell id="Ssd7fIlNlYfRAPl8rsqp-8" value="&lt;font face=&quot;Verdana&quot;&gt;现代文翻译文言文&lt;/font&gt;" style="ellipse;whiteSpace=wrap;html=1;fillColor=#1ba1e2;fontColor=#ffffff;strokeColor=#000000;labelBackgroundColor=none;labelBorderColor=none;" vertex="1" parent="1">
          <mxGeometry x="250" y="470" width="130" height="70" as="geometry" />
        </mxCell>
        <mxCell id="Ssd7fIlNlYfRAPl8rsqp-9" value="&lt;font face=&quot;Verdana&quot;&gt;文言文-现代文翻译系统&lt;/font&gt;" style="rounded=0;whiteSpace=wrap;html=1;strokeColor=none;opacity=0;" vertex="1" parent="1">
          <mxGeometry x="345" y="180" width="190" height="60" as="geometry" />
        </mxCell>
        <mxCell id="Ssd7fIlNlYfRAPl8rsqp-10" value="&lt;font face=&quot;Verdana&quot;&gt;现代文译文&lt;/font&gt;" style="ellipse;whiteSpace=wrap;html=1;fillColor=#1ba1e2;fontColor=#ffffff;strokeColor=#000000;labelBackgroundColor=none;labelBorderColor=none;" vertex="1" parent="1">
          <mxGeometry x="500" y="270" width="130" height="70" as="geometry" />
        </mxCell>
        <mxCell id="Ssd7fIlNlYfRAPl8rsqp-11" value="&lt;font face=&quot;Verdana&quot;&gt;文言文译文&lt;/font&gt;" style="ellipse;whiteSpace=wrap;html=1;fillColor=#1ba1e2;fontColor=#ffffff;strokeColor=#000000;labelBackgroundColor=none;labelBorderColor=none;" vertex="1" parent="1">
          <mxGeometry x="510" y="430" width="130" height="70" as="geometry" />
        </mxCell>
        <mxCell id="Ssd7fIlNlYfRAPl8rsqp-12" value="&lt;font style=&quot;font-size: 14px;&quot; face=&quot;Verdana&quot;&gt;&amp;lt;&amp;lt;include&amp;gt;&amp;gt;&lt;/font&gt;" style="rounded=0;whiteSpace=wrap;html=1;strokeColor=none;opacity=0;rotation=0;" vertex="1" parent="1">
          <mxGeometry x="350" y="240" width="190" height="60" as="geometry" />
        </mxCell>
        <mxCell id="Ssd7fIlNlYfRAPl8rsqp-13" value="&lt;font style=&quot;font-size: 14px;&quot; face=&quot;Verdana&quot;&gt;&amp;lt;&amp;lt;include&amp;gt;&amp;gt;&lt;/font&gt;" style="rounded=0;whiteSpace=wrap;html=1;strokeColor=none;opacity=0;rotation=0;" vertex="1" parent="1">
          <mxGeometry x="350" y="430" width="190" height="60" as="geometry" />
        </mxCell>
        <mxCell id="pda-TfuWles9bEth_fng-1" value="&lt;font style=&quot;font-size: 14px;&quot; face=&quot;Verdana&quot;&gt;开发人员&lt;/font&gt;" style="rounded=0;whiteSpace=wrap;html=1;strokeColor=none;opacity=0;" vertex="1" parent="1">
          <mxGeometry y="420" width="190" height="60" as="geometry" />
        </mxCell>
      </root>
    </mxGraphModel>
  </diagram>
</mxfile>
